<?xml version="1.0" encoding="UTF-8" standalone="no"?>
<!DOCTYPE svg PUBLIC "-//W3C//DTD SVG 1.1//EN" "http://www.w3.org/Graphics/SVG/1.1/DTD/svg11.dtd">
<svg width="100%" height="100%" viewBox="0 0 768 1024" version="1.1" xmlns="http://www.w3.org/2000/svg" xmlns:xlink="http://www.w3.org/1999/xlink" xml:space="preserve" xmlns:serif="http://www.serif.com/" style="fill-rule:evenodd;clip-rule:evenodd;stroke-linecap:round;stroke-linejoin:round;stroke-miterlimit:1.5;">
    <g transform="matrix(1,0,0,1,46,86)">
        <g transform="matrix(1,0,0,1,-32,8)">
            <path d="M737.078,233.653L627.078,229.653L545.078,237.653L487.078,291.653L425.078,359.653L429.078,429.653L513.078,483.653L597.078,507.653L626.579,553.827L603.078,593.653L537.078,639.653L457.078,639.653L393.078,597.653L337.078,561.653L367.078,625.653L423.078,703.653L513.078,719.653L609.078,677.653L675.078,631.653L707.211,535.733L683.078,463.653L605.078,433.653L521.078,391.653L527.078,327.653L593.078,285.653L737.078,233.653Z" style="fill:rgb(0,0,8);stroke:black;stroke-width:2px;"/>
        </g>
        <path d="M737.078,233.653L627.078,229.653L545.078,237.653L487.078,291.653L425.078,359.653L429.078,429.653L513.078,483.653L597.078,507.653L626.579,553.827L603.078,593.653L537.078,639.653L457.078,639.653L393.078,597.653L337.078,561.653L367.078,625.653L423.078,703.653L513.078,719.653L609.078,677.653L675.078,631.653L707.211,535.733L683.078,463.653L605.078,433.653L521.078,391.653L527.078,327.653L593.078,285.653L737.078,233.653Z" style="fill:rgb(193,0,8);stroke:black;stroke-width:2px;"/>
    </g>
    <g transform="matrix(1.13779,0,0,1.13779,19.9195,-132.485)">
        <g transform="matrix(1.39781,0,0,1.98374,-90.7789,-198.886)">
            <path d="M363.964,236.568L125.465,221.118L181.469,462.514L54.978,463.479L277.062,555.21L220.092,272.294L363.964,236.568Z" style="fill:rgb(0,133,255);stroke:black;stroke-width:0.51px;"/>
        </g>
        <g transform="matrix(1.39781,0,0,1.98374,-61.7226,-197.983)">
            <path d="M363.964,236.568L125.465,221.118L181.469,462.514L54.978,463.479L277.062,555.21L220.092,272.294L363.964,236.568Z" style="fill:rgb(255,89,0);stroke:black;stroke-width:1.49px;"/>
        </g>
    </g>
</svg>
